<svg width="123" height="56" viewBox="0 0 123 56" fill="none" xmlns="http://www.w3.org/2000/svg">
<path d="M58.1118 31.8511C56.3418 19.9741 45.2238 -0.45888 37.3908 0.53512C29.5578 1.52912 24.5028 15.1731 21.4708 19.9741C18.4388 24.7751 3.27784 37.6621 1.00384 39.9361C-1.27116 42.2111 4.54184 48.0231 10.6058 45.7491C16.6698 43.4751 27.5358 32.6091 27.5358 32.6091C27.5358 32.6091 16.4168 50.8021 22.2288 51.3081C28.0408 51.8131 36.6318 38.6731 36.6318 38.6731C36.6318 38.6731 31.5778 54.8451 37.6428 54.5921C43.7068 54.3401 46.7398 45.2431 46.7398 45.2431C46.7398 45.2431 46.7398 51.3071 51.5398 50.0431C56.3418 48.7801 58.6238 35.2911 58.1118 31.8511Z" fill="white"/>
<path d="M64.6248 31.8511C66.3928 19.9741 77.5108 -0.45888 85.3448 0.53512C93.1778 1.52912 98.2318 15.1731 101.264 19.9741C104.296 24.7751 119.457 37.6621 121.732 39.9361C124.005 42.2111 118.194 48.0231 112.13 45.7491C106.066 43.4751 95.1998 32.6091 95.1998 32.6091C95.1998 32.6091 106.318 50.8021 100.507 51.3081C94.6938 51.8131 86.1028 38.6731 86.1028 38.6731C86.1028 38.6731 91.1568 54.8451 85.0918 54.5921C79.0278 54.3401 75.9948 45.2431 75.9948 45.2431C75.9948 45.2431 75.9948 51.3071 71.1938 50.0431C66.3928 48.7801 64.1118 35.2911 64.6248 31.8511Z" fill="white"/>
<path d="M58.1118 31.8511C56.3418 19.9741 45.2238 -0.45888 37.3908 0.53512C29.5578 1.52912 24.5028 15.1731 21.4708 19.9741C18.4388 24.7751 3.27784 37.6621 1.00384 39.9361C-1.27116 42.2111 4.54184 48.0231 10.6058 45.7491C16.6698 43.4751 27.5358 32.6091 27.5358 32.6091C27.5358 32.6091 16.4168 50.8021 22.2288 51.3081C28.0408 51.8131 36.6318 38.6731 36.6318 38.6731C36.6318 38.6731 31.5778 54.8451 37.6428 54.5921C43.7068 54.3401 46.7398 45.2431 46.7398 45.2431C46.7398 45.2431 46.7398 51.3071 51.5398 50.0431C56.3418 48.7801 58.6238 35.2911 58.1118 31.8511Z" stroke="#58595B" stroke-miterlimit="10" stroke-linecap="round" stroke-linejoin="round"/>
<path d="M64.6248 31.8511C66.3928 19.9741 77.5108 -0.45888 85.3448 0.53512C93.1778 1.52912 98.2318 15.1731 101.264 19.9741C104.296 24.7751 119.457 37.6621 121.732 39.9361C124.005 42.2111 118.194 48.0231 112.13 45.7491C106.066 43.4751 95.1998 32.6091 95.1998 32.6091C95.1998 32.6091 106.318 50.8021 100.507 51.3081C94.6938 51.8131 86.1028 38.6731 86.1028 38.6731C86.1028 38.6731 91.1568 54.8451 85.0918 54.5921C79.0278 54.3401 75.9948 45.2431 75.9948 45.2431C75.9948 45.2431 75.9948 51.3071 71.1938 50.0431C66.3928 48.7801 64.1118 35.2911 64.6248 31.8511Z" stroke="#58595B" stroke-miterlimit="10" stroke-linecap="round" stroke-linejoin="round"/>
<path d="M33.7348 13.5931C33.7348 13.5931 27.0678 18.0931 28.4018 20.0931C29.7358 22.0931 34.5688 20.0931 34.5688 20.0931C34.5688 20.0931 32.0688 29.4271 35.2358 28.7601C38.4028 28.0931 41.2358 25.1241 41.2358 25.1241C41.2358 25.1241 41.0698 35.0931 43.7358 34.7601C46.4028 34.4271 46.7358 30.4271 46.7358 30.4271C46.7358 30.4271 51.4018 34.2601 52.0688 31.7601C52.7358 29.2601 52.0688 25.9271 52.0688 25.9271" stroke="#58595B" stroke-miterlimit="10" stroke-linecap="round" stroke-linejoin="round"/>
<path d="M88.7928 13.5931C88.7928 13.5931 95.4598 18.0931 94.1258 20.0931C92.7928 22.0931 87.9598 20.0931 87.9598 20.0931C87.9598 20.0931 90.4588 29.4271 87.2928 28.7601C84.1258 28.0931 81.2928 25.1241 81.2928 25.1241C81.2928 25.1241 81.4588 35.0931 78.7928 34.7601C76.1258 34.4271 75.7928 30.4271 75.7928 30.4271C75.7928 30.4271 71.1268 34.2601 70.4598 31.7601C69.7928 29.2601 70.4598 25.9271 70.4598 25.9271" stroke="#58595B" stroke-miterlimit="10" stroke-linecap="round" stroke-linejoin="round"/>
</svg>
